<?xml version="1.0" standalone="no"?>
<!DOCTYPE svg PUBLIC "-//W3C//DTD SVG 20010904//EN"
 "http://www.w3.org/TR/2001/REC-SVG-20010904/DTD/svg10.dtd">
<svg version="1.0" xmlns="http://www.w3.org/2000/svg"
 width="1253.000000pt" height="1061.000000pt" viewBox="0 0 1253.000000 1061.000000"
 preserveAspectRatio="xMidYMid meet">

<g transform="translate(0.000000,1061.000000) scale(0.100000,-0.100000)"
fill="#000000" stroke="none">
<path d="M4875 9576 l-2530 -872 -3 -487 -2 -487 22 5 c26 6 1611 265 1621
265 4 0 7 -1033 7 -2295 l0 -2295 445 0 445 0 2 2342 3 2342 170 33 c94 17
427 80 740 138 314 58 725 135 915 170 190 36 430 80 535 98 l189 34 1448
-413 c796 -228 1452 -414 1458 -414 7 0 10 165 10 479 l0 480 -1459 875 c-803
482 -1465 876 -1473 875 -7 0 -1151 -393 -2543 -873z"/>
<path d="M7430 7483 l0 -608 1448 -289 c796 -159 1453 -291 1460 -294 9 -3 12
97 12 480 l0 485 -1442 412 c-794 227 -1451 414 -1460 417 -17 5 -18 -28 -18
-603z"/>
<path d="M7430 5750 l0 -649 53 -5 c28 -4 340 -31 692 -61 352 -30 982 -84
1400 -120 418 -36 763 -65 767 -65 5 0 7 217 6 483 l-3 482 -1430 287 c-786
157 -1442 289 -1457 292 l-28 6 0 -650z"/>
<path d="M7430 4015 l0 -605 1460 0 1460 0 0 480 0 480 -22 4 c-22 5 -2861
247 -2885 246 -10 0 -13 -128 -13 -605z"/>
<path d="M5991 2324 c-94 -20 -168 -60 -234 -125 -192 -192 -210 -572 -38
-798 71 -94 215 -161 346 -163 101 -1 151 9 232 48 129 61 220 182 258 341 26
106 17 302 -17 393 -64 174 -190 282 -361 310 -79 13 -107 12 -186 -6z m233
-128 c130 -64 206 -218 206 -415 -1 -192 -75 -338 -206 -402 -127 -63 -268
-37 -362 65 -80 87 -116 193 -116 341 1 220 94 380 249 429 71 22 161 15 229
-18z"/>
<path d="M1540 2265 l0 -55 163 -2 162 -3 3 -477 2 -478 65 0 65 0 2 478 3
477 163 3 162 2 0 55 0 55 -395 0 -395 0 0 -55z"/>
<path d="M2970 1785 l0 -535 70 0 70 0 0 535 0 535 -70 0 -70 0 0 -535z"/>
<path d="M3916 2268 c-4 -29 -20 -251 -36 -493 -16 -242 -31 -459 -34 -482
l-4 -43 64 0 63 0 5 33 c6 37 33 505 43 740 3 86 8 155 10 153 2 -2 15 -46 29
-97 13 -52 79 -257 146 -456 l121 -363 53 0 c40 0 53 4 59 18 30 75 260 719
286 802 l34 105 2 -75 c3 -86 30 -605 40 -757 l6 -103 63 0 64 0 0 43 c0 23
-13 256 -30 517 -16 261 -30 483 -30 493 0 15 -11 17 -89 17 l-88 0 -111 -302
c-60 -167 -127 -357 -147 -423 -20 -66 -40 -129 -44 -139 -5 -14 -14 6 -30 70
-22 81 -133 415 -229 684 l-37 105 -87 3 -86 3 -6 -53z"/>
<path d="M7120 2265 l0 -55 163 -2 162 -3 3 -477 2 -478 65 0 65 0 2 478 3
477 163 3 162 2 0 55 0 55 -395 0 -395 0 0 -55z"/>
<path d="M8550 1785 l0 -535 70 0 70 0 0 250 0 250 260 0 260 0 0 -250 0 -250
70 0 70 0 0 535 0 535 -70 0 -70 0 0 -225 0 -225 -260 0 -260 0 0 225 0 225
-70 0 -70 0 0 -535z"/>
<path d="M10000 2313 c0 -5 74 -143 165 -307 l165 -299 0 -229 0 -228 70 0 70
0 0 230 0 230 175 299 c96 164 175 302 175 305 0 4 -34 6 -76 4 l-76 -3 -131
-254 -130 -254 -129 256 -128 257 -75 0 c-41 0 -75 -3 -75 -7z"/>
</g>
</svg>
